<?xml version="1.0" encoding="UTF-8" standalone="no"?>
<!DOCTYPE svg PUBLIC "-//W3C//DTD SVG 1.1//EN" "http://www.w3.org/Graphics/SVG/1.1/DTD/svg11.dtd">
<svg width="100%" height="100%" viewBox="0 0 1080 1080" version="1.1" xmlns="http://www.w3.org/2000/svg" xmlns:xlink="http://www.w3.org/1999/xlink" xml:space="preserve" xmlns:serif="http://www.serif.com/" style="fill-rule:evenodd;clip-rule:evenodd;stroke-linejoin:round;stroke-miterlimit:2;">
    <g id="NicePng_lion-png-logo_603815.png" transform="matrix(1.529325,0,0,1.529325,141.021794,227.298131)">
        <path d="M250.34,78.509C250.343,78.473 249.17,77.925 250.445,77.423C255.81,75.309 256.04,76.244 261.383,74.229C262.776,73.704 263.201,71.776 260.492,71.945C250.504,72.568 229.96,72.033 227.363,72.192C225.257,72.321 227.659,74.66 230.604,79.44C230.972,80.038 236.029,85.993 232.514,85.259C211.619,80.893 207.239,73.741 205.507,73.468C204.479,73.306 200.853,74.02 206.706,86.424C212.638,98.994 177.601,70.121 176.385,70.258C169.104,71.079 202.861,96.315 214.737,92.961C215.461,92.756 216.465,91.767 210.208,84.722C200.938,74.283 222.632,89.653 236.495,88.434C249.308,87.308 234.346,80.779 232.819,77.419C231.885,75.365 241.856,76.47 242.5,76.504C248.431,76.823 247.939,78.627 248.258,84.517C249.055,99.202 249.783,99.258 249.268,100.425C249.014,100.998 248.369,101.626 242.468,96.542C238.53,93.149 240.766,108.194 237.597,106.274C231.372,102.503 225.798,97.827 224.831,97.017C218.39,91.615 224.952,100.954 221.823,108.682C221.302,109.968 220,110.659 206.698,100.203C200.4,95.252 204.619,104.044 209.53,115.488C213.934,125.752 190.613,100.485 188.756,103.658C187.487,105.827 208.453,122.724 211.471,122.902C218.159,123.295 208.501,109.243 214.579,111.081C226.64,114.728 224.473,108.257 225.811,103.634C226.513,101.207 234.289,108.491 237.487,109.538C241.957,111.001 241.321,108.601 243.317,104.346C244.545,101.728 253.608,111.616 253.048,106.502C252.166,98.455 251.683,88.115 251.609,86.513C251.477,83.691 254.418,87.235 254.577,87.426C266.573,101.88 274.858,98.973 274.335,117.493C274.006,129.167 273.713,129.47 271.225,131.022C267.883,133.105 268.898,133.908 270.052,137.648C270.325,138.534 272.706,146.252 268.235,149.094C266.785,150.016 266.445,148.778 251.835,116.345C247.497,106.716 248.304,120.284 246.967,133.598C246.778,135.478 245.385,136.258 243.911,134.196C230.395,115.294 231.046,114.795 229.509,113.489C225.199,109.827 228.881,122.845 230.628,134.495C231.402,139.657 221.943,131.106 216.372,127.821C215.192,127.125 214.262,127.95 212.549,144.514C211.997,149.852 202.482,133.617 199.426,134.34C197.898,134.702 198.013,136.095 210.252,150.698C216.998,158.747 214.809,148.234 217.133,134.354C217.637,131.344 218.82,133.869 222.673,136.226C239.229,146.355 232.427,130.955 233.216,127.363C233.709,125.121 234.756,127.33 245.077,140.832C250.101,147.406 250.383,132.519 251.159,128.346C252.248,122.495 253.372,129.148 257.492,137.504C264.176,151.058 264.445,154.04 272.534,151.614C275.301,150.784 279.671,160.116 275.272,165.394C272.501,168.718 281.623,166.99 290.542,165.776C370.883,154.843 394.167,144.693 422.499,143.474C441.4,142.66 469.604,155.697 475.556,152.594C478.967,150.817 480.471,127.905 469.13,116.865C446.615,94.945 430.852,115.755 398.45,119.026C350.323,123.884 333.013,114.903 315.8,104.035C305.077,97.265 302.768,103.625 292.151,121.285C288.562,127.254 281.183,107.318 287.883,95.714C292.029,88.535 293.512,88.696 292.441,80.507C291.983,77.01 288.847,53.037 309.82,39.986C342.169,19.855 373.569,18.428 445.382,56.72C470.326,70.02 473.083,75.705 474.252,69.452C479.118,43.436 503.654,60.895 494.401,74.436C480.014,95.49 434.485,62.346 432.562,63.622C431.619,64.248 435.323,71.102 436.174,73.547C436.349,74.048 436.184,75.189 429.57,74.129C426.849,73.693 415.617,71.892 400.838,55.126C398.442,52.409 398.159,54.809 397.811,56.583C396.465,63.444 389.958,69.393 379.572,68.119C376.216,67.707 378.528,66.26 380.093,63.285C385.532,52.946 379.523,47.026 379.277,46.869C376.549,45.124 375.692,63.715 374.38,64.163C372.793,64.704 360.146,44.401 358.553,44.201C356.145,43.9 357.52,57.989 357.386,62.482C357.313,64.963 355.821,63.139 345.815,57.014C328.783,46.589 324.653,50.333 316.215,68.384C309.749,82.218 325.128,60.091 338.411,65.694C346.873,69.264 331.403,76.396 343.772,92.273C345.731,94.787 346.475,91.43 348.686,80.543C349.684,75.625 353.372,80.184 357.866,85.166C376.663,106.002 403.808,94.441 408.453,93.314C447.218,83.905 497.734,99.011 506.861,121.356C513.016,136.428 503.425,153.134 501.674,157.565C496.998,169.396 493.054,171.012 498.342,173.817C541.526,196.725 489.539,263.34 486.884,294.538C483.747,331.408 509.046,327.663 517.496,327.589C520.508,327.563 520.03,331.582 518.488,333.49C510.03,343.958 495.691,344.581 493.503,344.676C482.827,345.139 500.072,354.171 497.617,358.57C488.332,375.202 500.464,383.486 497.043,396.348C496.351,398.95 494.198,407.045 463.42,397.884C460.047,396.88 461.906,403.273 457.388,405.203C452.497,407.292 436.387,404.548 434.587,404.241C432.606,403.904 433.811,403.066 434.583,399.505C435.63,394.676 420.265,406.122 414.67,403.161C406.476,398.823 406.008,402.887 399.501,404.059C397.408,404.436 398.766,392.568 400.747,387.599C411.67,360.196 433.773,373.154 437.49,374.528C452.741,380.162 451.12,369.937 450.797,337.495C450.512,308.877 443.474,310.93 422.956,291.055C402.792,271.523 404.999,266.379 389.491,265.656C351.863,263.902 341.494,292.06 266.501,319.503C255.575,323.501 229.682,330.282 227.497,330.608C223.682,331.178 232.739,318.199 233.867,316.774C237.889,311.695 252.71,292.357 252.97,291.581C256.373,281.441 231.459,316.894 228.407,320.39C220.697,329.221 221.445,337.608 216.038,350.394C215.271,352.208 215.668,353.161 217.474,352.412C229.824,347.292 249.941,341.279 249.35,346.485C247.884,359.406 234.46,363.077 226.639,367.727C214.838,374.743 238.884,396.472 222.599,402.773C217.871,404.602 168.557,403.406 168.521,403.403C165.831,403.188 168.594,399.764 170.682,396.579C176.604,387.547 164.855,398.651 164.202,399.061C163.052,399.785 153.502,405.794 147.698,403.073C146.315,402.424 149.404,397.973 149.67,397.59C156.245,388.118 145.922,397.299 144.403,398.353C133.413,405.977 130.367,403.55 129.509,403.452C126.72,403.133 129.506,397.035 131.893,390.648C138.996,371.64 153.239,380.915 167.332,376.038C186.303,369.471 174.194,325.843 173.023,321.626C163.748,288.21 168.257,273.933 165.286,269.707C165.176,269.55 164.931,269.466 163.764,271.558C164.038,275.147 167.186,316.372 167.17,316.423C166.462,318.652 165.557,316.573 152.415,307.618C150.582,306.369 117.424,280.51 113.918,253.434C109.559,219.774 136.592,202.677 148.606,193.648C164.665,181.58 179.842,178.743 179.921,173.538C179.941,172.223 180.834,160.026 176.265,157.891C172.77,156.257 166.588,170.081 160.254,167.966C157.545,167.061 167.223,138.861 155.694,158.608C150.982,166.679 156.476,176.436 148.704,171.175C140.556,165.659 145.382,143.541 139.748,154.641C139.038,156.04 132.427,179.231 128.231,174.752C126.526,172.932 133.352,151.924 129.558,154.636C125.889,157.259 117.252,168.427 104.452,166.642C98.467,165.807 115.719,161.406 111.654,143.464C109.475,133.848 105.375,126.801 108.484,127.622C120.435,130.779 121.094,135.064 146.446,132.074C152.818,131.323 152.015,133.821 152.217,137.521C152.681,146.004 164.841,133.264 186.549,142.385C191.131,144.311 191.193,142.852 191.171,142.483C189.914,121.853 176.791,118.285 163.125,103.921C161.876,102.609 160.769,103.608 160.766,103.619C160.621,104.223 161.101,104.188 160.075,111.36C159.792,113.34 147.513,113.258 138.817,99.293C136.265,95.196 136.895,94.021 134.464,94.164C130.485,94.399 125.845,103.67 116.649,93.366C85.528,58.494 122.392,62.974 125.164,65.816C129.039,69.789 122.13,77.183 129.411,75.172C138.49,72.665 174.169,63.794 174.448,63.457C175.271,62.459 172.585,57.994 162.457,54.621C160.133,53.847 158.565,53.189 161.022,51.051C162.608,49.672 175.303,38.631 187.235,52.72C187.486,53.017 191.802,62.056 198.372,57.307C206.104,51.718 200.454,37.381 204.535,36.678C217.447,34.452 227.754,55.644 231.031,50.23C239.486,36.261 233.493,33.463 236.316,32.196C238.095,31.399 247.138,40.206 247.976,41.023C256.63,49.451 254.26,55.288 261.428,54.1C284.982,50.2 284.551,46.755 286.362,47.734C287.825,48.526 287.406,58.161 281.124,64.096C273.989,70.837 271.449,70.879 273.927,75.252C282.226,89.896 279.787,101.552 279.156,102.117C275.344,105.531 266.416,93.998 250.562,79.447L250.34,78.509ZM176.624,78.361C189.442,91.156 177.064,103.13 170.774,93.341C165.112,84.526 169.18,78.794 169.902,77.778C172.076,74.715 176.203,78.024 176.624,78.361Z" style="fill:rgb(15,71,53);fill-opacity:1;"/>
        <path d="M380.503,401.923C351.063,402.048 349.054,402.917 349.73,400.547C349.82,400.231 356.571,386.628 352.678,388.861C349.331,390.779 345.09,406.071 331.467,401.565C327.049,400.104 346.607,382.425 338.466,385.424C336.549,386.13 328.301,398.536 314.466,402.355C308.157,404.097 312.538,375.108 337.523,379.369C347.988,381.154 354.18,386.553 355.998,377.591C362.914,343.497 362.684,341.639 350.263,327.704C329.6,304.522 324.521,296.11 347.717,280.835C377.128,261.466 418.67,261.939 410.071,300.41C402.811,332.891 398.664,334.139 401.444,334.627C401.6,334.654 426.69,323.661 427.34,329.53C427.579,331.69 421.061,340.752 415.273,344.113C403.529,350.933 405.906,354.006 400.19,373.407C396.747,385.094 396.441,384.935 392.79,396.593C390.545,403.764 381.608,401.9 380.503,401.923Z" style="fill:rgb(15,71,53);fill-opacity:1;"/>
        <path d="M60.947,152.501C60.617,188.357 59.989,188.329 60.974,201.449C61.027,202.154 61.507,208.549 59.252,210.109C56.916,211.726 33.536,212.279 31.998,210.127C30.25,207.681 29.5,206.632 32.967,172.554C33.635,165.98 37.406,128.911 42.828,90.545C45.289,73.132 45.258,62.176 54.642,29.542C55.274,27.344 63.811,-2.343 67.04,3.793C69.159,7.821 63.557,7.894 62.334,60.497C61.994,75.123 61.455,129.014 60.947,152.501Z" style="fill:rgb(15,71,53);fill-opacity:1;"/>
        <path d="M85.456,307.977C84.307,307.748 73.259,305.548 71.51,303.491C70.708,302.548 73.713,300.472 77.011,296.141C86.294,283.951 71.315,268.481 72.102,266.366C73.999,261.265 71.557,257.65 72.392,254.476C77.113,236.526 70.072,229.816 79.582,227.818C102.436,223.016 108.272,257.338 119.619,275.424C129.766,291.596 159.175,315.437 139.496,326.493C120.259,337.301 96.889,301.295 95.248,299.851C92.037,297.026 93.494,307.475 85.456,307.977Z" style="fill:rgb(15,71,53);fill-opacity:1;"/>
        <path d="M31.469,336.948C29.285,336.756 10.691,337.378 10.238,326.509C10.056,322.165 14.314,310.488 24.565,313.322C34.511,316.072 24.994,330.523 30.516,328.573C38.776,325.657 37.932,320.513 37.886,319.464C37.628,313.59 32.742,313.154 38.344,301.435C39.861,298.262 36.966,299.869 28.495,299.681C7.941,299.225 9.067,277.771 20.555,280.223C32.093,282.685 32.61,287.613 33.646,288.132C34.281,288.45 38.065,285.655 38.419,285.393C50.408,276.538 56.407,286.685 57.502,286.672C57.972,286.667 74.842,272.288 76.786,287.459C78.387,299.955 57.66,297.717 56.998,300.623C55.86,305.621 55.161,318.878 55.076,320.471C54.748,326.691 64.393,330.495 63.989,324.462C62.356,300.12 81.208,320.441 82.706,324.415C88.96,341.011 43.263,332.998 53.633,341.35C57.556,344.51 57.398,344.549 60.656,348.383C63.113,351.275 57.163,352.154 54.396,353.269C49.777,355.131 50.379,367.481 44.849,362.124C32.99,350.636 30.696,352.914 30.693,351.498C30.691,349.968 40.683,339.898 40.834,339.772C44.427,336.779 39.79,337.349 31.469,336.948Z" style="fill:rgb(15,71,53);fill-opacity:1;"/>
        <path d="M29.15,266.851C22.588,264.602 20.965,266.059 18.433,259.522C15.626,252.276 44.94,258.982 40.351,254.733C39.481,253.927 12.523,254.779 14.597,245.528C14.798,244.634 17.745,240.848 22.486,241.646C50.694,246.399 50.848,240.542 59.45,241.648C61.042,241.853 66.667,245.525 65.342,247.397C62.441,251.495 57.858,252.827 62.396,254.706C65.574,256.022 67.673,255.715 65.955,258.709C63.576,262.853 62.684,263.711 66.34,266.697C71.82,271.173 54.27,283.556 23.471,277.691C19.528,276.941 15.647,272.637 18.662,270.77C25.959,266.254 27.55,270.205 29.172,268.089C29.232,268.01 29.172,268.089 29.15,266.851Z" style="fill:rgb(15,71,53);fill-opacity:1;"/>
        <path d="M2.065,204.495C3.882,191.301 19.525,193.835 22.292,195.817C26.317,198.7 23.345,202.26 22.661,203.583C19.149,210.37 36.727,216.625 49.501,215.52C67.33,213.978 65.973,208.512 67.714,201.557C69.316,195.155 79.678,198.719 82.428,204.538C90.424,221.459 51.062,227.181 41.475,225.645C17.381,221.785 2.215,217.621 2.065,204.495Z" style="fill:rgb(15,71,53);fill-opacity:1;"/>
        <path d="M156.531,120.035C163.942,119.555 178.548,115.354 185.112,130.666C188.585,138.767 181.454,136.824 180.5,136.81C178.5,136.779 176.501,136.702 174.502,136.658C162.505,136.397 156.3,137.629 155.759,135.421C155.555,134.59 156.595,126.658 148.57,127.944C138.357,129.579 124.081,133.089 112.883,124.058C110.403,122.059 106.577,116.378 108.521,115.683C108.861,115.562 115.317,118.217 137.516,119.074C147.031,119.442 146.955,119.512 156.531,120.035Z" style="fill:rgb(15,71,53);fill-opacity:1;"/>
        <path d="M39.525,229.047C54.667,229.15 54.533,228.226 61.5,227.514C65.829,227.071 74.109,235.248 62.504,238.517C47.629,242.707 9.212,242.585 13.804,230.598C16.003,224.857 26.915,228.307 39.525,229.047Z" style="fill:rgb(15,71,53);fill-opacity:1;"/>
        <path d="M171.606,80.998C184.782,85.788 178.176,96.3 174.484,92.515C173.71,91.722 171.917,85.099 171.739,84.441C171.263,82.685 171.673,82.751 171.606,80.998Z" style="fill:rgb(15,71,53);fill-opacity:0.99;"/>
    </g>
</svg>
